<svg width="38" height="33" viewBox="0 0 38 33" fill="none" xmlns="http://www.w3.org/2000/svg">
<path d="M35.7331 0H4.93444C4.65393 0.00482872 4.40522 0.169853 4.30676 0.416404C4.20861 0.662948 4.28101 0.940454 4.48913 1.11684L15.2881 9.91306H15.2884C15.4756 10.067 15.5877 10.2857 15.5986 10.5189C15.6098 10.7521 15.519 10.9793 15.3472 11.1483L8.07251 18.2433C7.73413 18.5765 7.17401 18.5961 6.81021 18.2874L1.13114 13.5161C0.851832 13.2818 0.42288 13.3039 0.172995 13.5658C-0.0769293 13.8277 -0.0532991 14.2299 0.226008 14.4642L3.98662 17.6235V27.8646C3.98723 28.4281 4.22655 28.9684 4.65156 29.3668C5.07628 29.7654 5.65243 29.9895 6.25346 29.9903H14.2467C14.7486 30.9214 15.1124 32.5128 16.3439 32.8608C17.3617 33.3011 18.5435 32.5904 19.4444 32.201H19.4447C19.793 32.5569 20.2614 32.7901 20.771 32.8617C21.2808 32.9333 21.8012 32.839 22.2457 32.5941L23.4196 31.9479V31.9482C23.7428 32.3959 24.2356 32.7111 24.7982 32.8299C25.3604 32.9486 25.95 32.8617 26.4465 32.5867L27.7251 31.8749C28.1353 32.1874 28.6476 32.3581 29.1759 32.3587C29.709 32.3268 30.2258 32.1752 30.683 31.9164C31.0835 31.7414 31.4203 31.46 31.6515 31.1069C31.8826 30.7535 31.9977 30.3445 31.9829 29.9307H35.7332C36.3342 29.9298 36.9104 29.7057 37.3351 29.3072C37.7601 28.9087 37.9994 28.3685 38 27.8049V2.12596C37.9994 1.56243 37.7601 1.02216 37.3351 0.623688C36.9103 0.225178 36.3342 0.00107377 35.7332 0.000223015L35.7331 0ZM18.8704 1.2725H23.1127V5.47028C23.1127 5.52992 23.0609 5.5785 22.9973 5.5785H18.9861C18.9222 5.5785 18.8703 5.53021 18.87 5.47028L18.8704 1.2725ZM36.6428 27.8051C36.6422 28.2761 36.235 28.6578 35.7331 28.6583H31.5563L27.7971 21.2815C28.7284 21.5925 29.6938 21.8047 30.6753 21.9138C31.9628 21.9135 33.1642 21.3088 33.8755 20.3027L34.1182 19.961C34.3493 19.6304 34.4193 19.2228 34.3105 18.8405C34.2018 18.4585 33.9246 18.1378 33.5481 17.9591C32.6696 17.6152 24.6723 13.621 23.9022 13.6812L19.1104 12.9524C18.7433 12.9013 18.4001 13.1365 18.3407 13.4802C18.2813 13.8238 18.5273 14.1485 18.8932 14.2088L23.6857 14.9376C23.7293 14.6606 32.6048 18.9925 32.9437 19.0988H32.9434C32.9743 19.1115 32.9973 19.1365 33.0058 19.1669C33.0146 19.1973 33.0082 19.2297 32.9886 19.2553C32.7262 19.7671 32.2806 20.1764 31.7299 20.4124C31.1789 20.6485 30.5573 20.6959 29.9729 20.5471L27.0129 19.7435L26.3925 18.5258C26.228 18.2137 25.8266 18.0836 25.4919 18.2336C25.1569 18.3833 25.0124 18.7579 25.1678 19.0738L30.5155 29.5679C30.6379 29.7761 30.6636 30.0223 30.5861 30.2487C30.5088 30.4751 30.3352 30.6614 30.1068 30.764L29.5528 31.0077C29.1023 31.2034 28.5676 31.0273 28.3468 30.6106L25.7888 25.7331C25.7097 25.5811 25.5692 25.4649 25.3986 25.4104C25.2281 25.3556 25.0412 25.3667 24.8794 25.4414C24.7176 25.5161 24.5943 25.6479 24.5362 25.8081C24.4783 25.9683 24.4907 26.1432 24.5707 26.2949L26.9478 30.8276L25.7531 31.4925V31.4923C25.5331 31.6135 25.2693 31.6434 25.0248 31.5743C24.7806 31.5053 24.578 31.3437 24.4662 31.1287L22.3535 27.015C22.1878 26.7037 21.7861 26.575 21.452 26.7258C21.1176 26.8766 20.9743 27.251 21.1303 27.5665L22.7983 30.8142L21.5584 31.4965C21.3382 31.6169 21.0743 31.6456 20.8304 31.5757C20.5869 31.5059 20.3851 31.344 20.2742 31.1287L18.8044 28.2246C18.6402 27.9127 18.2397 27.7824 17.9047 27.9312C17.5699 28.0803 17.4245 28.4538 17.5784 28.7702L18.7565 31.0982L17.5278 31.6416L17.5281 31.6413C17.3051 31.7385 17.0503 31.7476 16.8201 31.6669C16.5902 31.5862 16.4042 31.4223 16.3039 31.2119L11.5048 21.0014C11.3497 20.6861 10.9538 20.5458 10.6151 20.6858C10.2761 20.8258 10.1195 21.1945 10.2631 21.5146L13.6483 28.717H6.25312L6.25343 28.7173C5.75116 28.7167 5.34398 28.335 5.34344 27.864V18.7632L5.90478 19.2347C6.34131 19.6042 6.91419 19.7993 7.50187 19.7786C8.08956 19.7582 8.64544 19.5233 9.05111 19.1242L16.3252 12.0298C16.7532 11.6088 16.9792 11.0422 16.9516 10.4613C16.9238 9.88017 16.6445 9.33512 16.1782 8.95163L6.75035 1.27157H17.5129V5.46936C17.5135 5.83549 17.6689 6.18656 17.9452 6.44532C18.2212 6.70408 18.5956 6.8498 18.9861 6.85008H22.9973C23.3877 6.84951 23.7619 6.70408 24.0378 6.44532C24.3138 6.18628 24.4692 5.83549 24.4698 5.46936V1.27157H35.7334C36.2353 1.27214 36.6425 1.65389 36.643 2.1248L36.6428 27.8051Z" fill="#007A14"/>
</svg>
