<svg width="39" height="31" viewBox="0 0 39 31" fill="none" xmlns="http://www.w3.org/2000/svg">
<path d="M10.942 1.90658C13.0221 1.90658 15.111 2.59733 16.8041 4.00578L19.1609 5.96552L21.5169 4.00578C23.2115 2.59737 25.2998 1.90687 27.3799 1.90687C29.8832 1.90687 32.3726 2.90742 34.1417 4.86092C37.3815 8.43711 36.981 13.8535 33.2487 16.9584L32.8127 17.3217L19.1606 28.6754L5.50845 17.321L5.07245 16.9576C1.33952 13.8531 0.940844 8.43675 4.18036 4.86019C5.95038 2.9067 8.43869 1.906 10.942 1.90658ZM10.9419 0.000827078C7.76865 0.000543653 4.75683 1.31629 2.67899 3.61163C0.763121 5.72585 -0.177815 8.4276 0.0277737 11.2204C0.233945 14.0132 1.56208 16.5619 3.76835 18.3964L4.20523 18.76L17.8581 30.1145C18.2314 30.4257 18.6973 30.581 19.1611 30.581C19.6249 30.581 20.0913 30.4254 20.464 30.1145L34.1162 18.7593L34.5513 18.3968C36.7585 16.5609 38.0878 14.0128 38.2937 11.22C38.4993 8.42729 37.5574 5.72546 35.6425 3.61051C33.5645 1.31634 30.5524 0 27.3795 0C24.7479 0 22.204 0.911009 20.2136 2.5649L19.1609 3.44217L18.1085 2.56664C16.1188 0.91188 13.5736 0.000827078 10.9419 0.000827078Z" fill="black"/>
</svg>
