<svg width="26" height="26" viewBox="0 0 26 26" fill="none" xmlns="http://www.w3.org/2000/svg">
<path d="M25.3174 12.5651C24.8994 12.132 24.328 11.8809 23.7263 11.8659C23.1247 11.8508 22.5414 12.0729 22.1023 12.4845L16.8549 17.1514C16.7339 16.7682 16.4942 16.4333 16.1703 16.195C15.8466 15.9568 15.4555 15.8277 15.0535 15.8261H4.41689C4.30078 15.4965 4.08551 15.2109 3.80045 15.0084C3.5156 14.806 3.17513 14.6968 2.82565 14.6958H1.69532C1.24587 14.6962 0.81495 14.875 0.497168 15.193C0.179194 15.5109 0.000595495 15.9419 0 16.3913V24.3043C0.000591357 24.7537 0.179194 25.1849 0.497168 25.5026C0.814945 25.8206 1.24588 25.9994 1.69532 26H2.82565C3.17517 25.9988 3.51562 25.8896 3.80045 25.6872C4.0855 25.4847 4.30077 25.1991 4.41689 24.8695H6.78146C6.78954 24.8695 6.79605 24.8653 6.80393 24.8649L7.51757 25.1604C9.71005 26.0655 12.135 26.2441 14.4369 25.6702C16.7384 25.0964 18.7957 23.8002 20.3066 21.9717L25.4526 15.7447C25.8285 15.2923 26.0229 14.7165 25.9979 14.1288C25.9728 13.5412 25.7303 12.9839 25.3174 12.5651ZM2.82581 24.8696H1.69548C1.38342 24.8694 1.13071 24.6165 1.13051 24.3045V16.3915C1.13071 16.0794 1.38343 15.8265 1.69548 15.8263H2.82581C3.13787 15.8265 3.39057 16.0794 3.39077 16.3915V24.3045C3.39057 24.6165 3.13785 24.8694 2.82581 24.8696ZM6.2165 23.7393H4.52115V16.9567H6.2165V23.7393ZM24.582 15.0249L19.4355 21.2519C18.0782 22.8939 16.2305 24.058 14.1633 24.5733C12.0962 25.0888 9.91831 24.9283 7.94898 24.1154L7.34637 23.8662V16.9565H15.053C15.2955 16.9567 15.5237 17.071 15.669 17.265C15.8145 17.4591 15.8598 17.7103 15.7918 17.9431C15.7236 18.1759 15.55 18.3628 15.3229 18.448L11.6684 19.8184C11.3763 19.9286 11.2284 20.2543 11.3378 20.5466C11.4508 20.8358 11.7735 20.9825 12.0657 20.8772L15.7201 19.5068C15.9478 19.4179 16.1571 19.2876 16.3377 19.123L22.8629 13.3194C23.0872 13.1077 23.3861 12.9928 23.6946 12.9999C24.0031 13.0068 24.2962 13.1351 24.5107 13.3571C24.7274 13.5767 24.8545 13.8691 24.8675 14.1772C24.8805 14.4853 24.7791 14.7878 24.582 15.0249ZM12.7129 14.6192C12.8892 14.7209 13.1062 14.7208 13.2825 14.619C13.5957 14.4359 20.9603 10.0791 20.9603 4.91151C20.9605 3.61102 20.445 2.36382 19.5268 1.44302C18.6084 0.522233 17.3625 0.00339851 16.062 1.73259e-05C14.947 -0.00293964 13.865 0.377917 12.9976 1.07871C12.1302 0.377902 11.0481 -0.00296013 9.93295 1.73259e-05C8.63265 0.00336853 7.3866 0.522233 6.46837 1.44302C5.55015 2.36382 5.03444 3.61107 5.03464 4.91151C5.03464 10.0787 12.3996 14.436 12.7129 14.6192ZM9.93299 1.13084C10.9334 1.12828 11.8933 1.52688 12.5974 2.23755C12.8216 2.45065 13.1734 2.45065 13.3976 2.23755C14.1019 1.52689 15.0616 1.12832 16.062 1.13084C17.0628 1.1336 18.0215 1.53338 18.728 2.24209C19.4343 2.95098 19.8308 3.91098 19.8302 4.91181C19.8302 8.90645 14.3244 12.6285 12.9976 13.4672C11.6698 12.6294 6.16507 8.9119 6.16507 4.91181C6.16468 3.91098 6.56072 2.95098 7.26725 2.24209C7.97356 1.5334 8.93236 1.13362 9.93299 1.13084ZM14.3255 9.68674C16.4176 7.89441 17.5699 6.19832 17.5699 4.91166C17.571 4.5103 17.4129 4.1249 17.1303 3.84007C16.8476 3.55502 16.4634 3.39376 16.062 3.3918C15.7499 3.3918 15.4968 3.13868 15.4968 2.82643C15.4968 2.51438 15.75 2.26127 16.062 2.26127C16.7632 2.26383 17.4346 2.54415 17.929 3.04111C18.4236 3.53808 18.7008 4.2107 18.7 4.91187C18.7 6.99119 16.721 9.12275 15.0604 10.5458C14.9579 10.6328 14.8273 10.6797 14.6929 10.6785C14.4591 10.6743 14.2519 10.5273 14.1707 10.3081C14.0895 10.0889 14.1508 9.84225 14.3255 9.68674Z" fill="#007A14"/>
</svg>
